<?xml version="1.0" encoding="UTF-8"?>
<svg width="44px" height="45px" viewBox="0 0 44 45" version="1.1" xmlns="http://www.w3.org/2000/svg" xmlns:xlink="http://www.w3.org/1999/xlink">
    <title>noun_coil_3160470</title>
    <g id="Page-1" stroke="none" stroke-width="1" fill="none" fill-rule="evenodd">
        <g id="noun_coil_3160470" fill="#000000" fill-rule="nonzero">
            <g id="Group">
                <path d="M21.75,3 C11.41125,3 3,11.41125 3,21.75 C3,32.08875 11.41125,40.5 21.75,40.5 C32.08875,40.5 40.5,32.08875 40.5,21.75 C40.5,11.41125 32.08875,3 21.75,3 Z M21.75,39 C12.23775,39 4.5,31.2615 4.5,21.75 C4.5,12.2385 12.23775,4.5 21.75,4.5 C31.26225,4.5 39,12.2385 39,21.75 C39,31.2615 31.26225,39 21.75,39 Z" id="Shape"></path>
                <path d="M21.75,6 C13.06575,6 6,13.065 6,21.75 C6,30.435 13.06575,37.5 21.75,37.5 C30.43425,37.5 37.5,30.435 37.5,21.75 C37.5,13.065 30.43425,6 21.75,6 Z M21.75,36 C13.89225,36 7.5,29.60775 7.5,21.75 C7.5,13.89225 13.89225,7.5 21.75,7.5 C29.60775,7.5 36,13.89225 36,21.75 C36,29.60775 29.60775,36 21.75,36 Z" id="Shape"></path>
                <path d="M21.75,9 C14.7195,9 9,14.7195 9,21.75 C9,28.7805 14.7195,34.5 21.75,34.5 C28.7805,34.5 34.5,28.7805 34.5,21.75 C34.5,14.7195 28.7805,9 21.75,9 Z M21.75,33 C15.54675,33 10.5,27.95325 10.5,21.75 C10.5,15.54675 15.54675,10.5 21.75,10.5 C27.95325,10.5 33,15.54675 33,21.75 C33,27.95325 27.95325,33 21.75,33 Z" id="Shape"></path>
                <path d="M40.5,39 C40.5,39.82725 41.17275,40.5 42,40.5 C42.82725,40.5 43.5,39.82725 43.5,39 L43.5,29.95575 C42.74925,31.93875 41.73525,33.7935 40.5,35.4765 L40.5,39 Z" id="Path"></path>
                <path d="M21.75,0 C9.7575,0 0,9.75675 0,21.75 C0,33.74325 9.7575,43.5 21.75,43.5 C33.7425,43.5 43.5,33.74325 43.5,21.75 C43.5,9.75675 33.7425,0 21.75,0 Z M21.75,42 C10.584,42 1.5,32.916 1.5,21.75 C1.5,10.584 10.584,1.5 21.75,1.5 C32.916,1.5 42,10.584 42,21.75 C42,32.916 32.916,42 21.75,42 Z" id="Shape"></path>
                <path d="M0,39 C0,39.82725 0.67275,40.5 1.5,40.5 C2.32725,40.5 3,39.82725 3,39 L3,35.4765 C1.76475,33.7935 0.75075,31.9395 0,29.95575 L0,39 Z" id="Path"></path>
                <path d="M41.25,41.8935 L41.25,45 L42.75,45 L42.75,41.8935 C42.5085,41.9565 42.26025,42 42,42 C41.73975,42 41.4915,41.9565 41.25,41.8935 Z" id="Path"></path>
                <path d="M0.75,41.8935 L0.75,45 L2.25,45 L2.25,41.8935 C2.0085,41.9565 1.76025,42 1.5,42 C1.23975,42 0.9915,41.9565 0.75,41.8935 Z" id="Path"></path>
            </g>
        </g>
    </g>
</svg>