<?xml version="1.0" encoding="UTF-8"?>
<svg width="43px" height="45px" viewBox="0 0 43 45" version="1.1" xmlns="http://www.w3.org/2000/svg" xmlns:xlink="http://www.w3.org/1999/xlink">
    <title>noun_Pipe Coil_1077624</title>
    <g id="Page-1" stroke="none" stroke-width="1" fill="none" fill-rule="evenodd">
        <g id="noun_Pipe-Coil_1077624" fill="#000000" fill-rule="nonzero">
            <path d="M4.28571429,0 L4.28571429,3.98571429 L0,3.98571429 L0,6.12857143 L4.28571429,6.12857143 L4.28571429,38.4857143 L0,38.4857143 L0,40.6285714 L4.28571429,40.6285714 L4.28571429,44.6142857 L42.8571429,44.6142857 L42.8571429,0 L4.28571429,0 Z M6.42857143,6.12857143 L33.7714286,6.12857143 C35.2285714,6.12857143 36.4285714,7.2 36.4285714,8.48571429 C36.4285714,9.77142857 35.2285714,10.8428571 33.7714286,10.8428571 L13.3714286,10.8428571 C10.7142857,10.8857143 8.57142857,12.9 8.57142857,15.3857143 C8.57142857,17.8714286 10.7142857,19.8857143 13.3714286,19.8857143 L33.7714286,19.8857143 C35.2285714,19.8857143 36.4285714,20.9571429 36.4285714,22.2428571 C36.4285714,23.5714286 35.2285714,24.6 33.7714286,24.6 L13.3714286,24.6 C10.7142857,24.6 8.57142857,26.6142857 8.57142857,29.1 C8.57142857,31.5857143 10.7142857,33.6 13.3714286,33.6 L33.7714286,33.6 C35.2285714,33.6 36.4285714,34.6714286 36.4285714,35.9571429 C36.4285714,37.2857143 35.2285714,38.3142857 33.7714286,38.3142857 L6.42857143,38.3142857 L6.42857143,6.12857143 Z M40.7142857,42.4285714 L6.42857143,42.4285714 L6.42857143,40.5857143 L33.7714286,40.5857143 C36.4285714,40.5857143 38.5714286,38.5714286 38.5714286,36.0857143 C38.5714286,33.6 36.4285714,31.5857143 33.7714286,31.5857143 L13.3714286,31.5857143 C11.9142857,31.5857143 10.7142857,30.5142857 10.7142857,29.2285714 C10.7142857,27.9428571 11.9142857,26.8714286 13.3714286,26.8714286 L33.7714286,26.8714286 C36.4285714,26.8714286 38.5714286,24.8571429 38.5714286,22.3714286 C38.5714286,19.8857143 36.4285714,17.8714286 33.7714286,17.8714286 L13.3714286,17.8714286 C11.9142857,17.8714286 10.7142857,16.8 10.7142857,15.5142857 C10.7142857,14.2285714 11.9142857,13.1571429 13.3714286,13.1571429 L33.7714286,13.1571429 C36.4285714,13.1571429 38.5714286,11.1428571 38.5714286,8.65714286 C38.5714286,6.17142857 36.4285714,4.15714286 33.7714286,4.15714286 L6.42857143,4.15714286 L6.42857143,2.14285714 L40.7142857,2.14285714 L40.7142857,42.4285714 Z" id="Shape"></path>
        </g>
    </g>
</svg>