<?xml version="1.0" encoding="UTF-8"?>
<svg width="36px" height="45px" viewBox="0 0 36 45" version="1.1" xmlns="http://www.w3.org/2000/svg" xmlns:xlink="http://www.w3.org/1999/xlink">
    <title>noun_Door_1977457</title>
    <g id="Page-1" stroke="none" stroke-width="1" fill="none" fill-rule="evenodd">
        <g id="noun_Door_1977457" fill="#000000" fill-rule="nonzero">
            <path d="M0.627365156,39.5677185 C0.627365156,40.0112915 0.9386445,40.393982 1.37260444,40.4850769 L22.7941133,44.9798584 C22.8582001,44.9935913 22.922287,45 22.9863739,45 C23.1996918,45 23.408432,44.9272156 23.576889,44.7903443 C23.7966156,44.6122742 23.9238739,44.3449402 23.9238739,44.0625 L23.9238739,40.5052185 L34.0605926,40.5052185 C34.5787811,40.5052185 34.9980926,40.0854492 34.9980926,39.5677185 L34.9980926,0.9375 C34.9980926,0.419769281 34.5787811,0 34.0605926,0 L1.56486516,0 C1.51805878,0 1.47697453,0.0183677813 1.43188481,0.025005375 C1.38479241,0.0318718125 1.34027484,0.0368500313 1.29478463,0.0508118437 C1.20311747,0.0787926562 1.12157831,0.121994062 1.04398734,0.175094719 C1.02218634,0.189914812 0.995063813,0.192947531 0.974350031,0.209655844 C0.968742469,0.214233469 0.966739688,0.221557687 0.9612465,0.226249781 C0.864143344,0.308647219 0.783805875,0.408210844 0.726528188,0.52419675 C0.714168563,0.549202125 0.712966969,0.577297313 0.702896156,0.603332625 C0.673084313,0.679836375 0.640926375,0.7556535 0.631942781,0.840912 C0.629940094,0.86019525 0.637378688,0.877647562 0.636577594,0.896759156 C0.635948156,0.910949719 0.627365156,0.923194875 0.627365156,0.9375 L0.627365156,39.5677185 Z M33.1230926,1.875 L33.1230926,38.6302185 L23.9238739,38.6302185 L23.9238739,5.4322815 C23.9238739,4.98870853 23.6125945,4.60601803 23.1786346,4.51492312 L10.5983734,1.875 L33.1230926,1.875 Z M2.50236516,2.09197997 L22.048874,6.19354247 L22.048874,39.5677185 L22.048874,42.90802 L2.50236516,38.8064575 L2.50236516,2.09197997 Z" id="Shape"></path>
            <path d="M18.5643769,22.2738648 C18.0461884,22.2738648 17.6268769,22.6936341 17.6268769,23.2113648 L17.6268769,24.9810791 C17.6268769,25.4988098 18.0461884,25.9185791 18.5643769,25.9185791 C19.0825654,25.9185791 19.5018769,25.4988098 19.5018769,24.9810791 L19.5018769,23.2113648 C19.5018769,22.6936341 19.0825653,22.2738648 18.5643769,22.2738648 Z" id="Path"></path>
        </g>
    </g>
</svg>