<?xml version="1.0" encoding="UTF-8"?>
<svg width="45px" height="46px" viewBox="0 0 45 46" version="1.1" xmlns="http://www.w3.org/2000/svg" xmlns:xlink="http://www.w3.org/1999/xlink">
    <title>noun_Air Conditioner_3088677</title>
    <g id="Page-1" stroke="none" stroke-width="1" fill="none" fill-rule="evenodd">
        <g id="noun_Air-Conditioner_3088677" fill="#000000" fill-rule="nonzero">
            <g id="Group">
                <path d="M41.9491525,0 L12.9661017,0 C12.1233051,0 11.440678,0.682627119 11.440678,1.52542373 C11.440678,2.36822034 12.1233051,3.05084746 12.9661017,3.05084746 L41.1864407,3.05084746 C41.6074576,3.05084746 41.9491525,3.39254237 41.9491525,3.81355932 L41.9491525,6.10169492 L16.0169492,6.10169492 C15.1741525,6.10169492 14.4915254,6.78432203 14.4915254,7.62711864 C14.4915254,8.46991525 15.1741525,9.15254237 16.0169492,9.15254237 L41.9491525,9.15254237 L41.9491525,12.9661017 C41.9491525,13.3871186 41.6074576,13.7288136 41.1864407,13.7288136 L39.6610169,13.7288136 L39.6610169,16.779661 L41.9491525,16.779661 C43.6339831,16.779661 45,15.4136441 45,13.7288136 L45,3.05084746 C45,1.36601695 43.6339831,0 41.9491525,0 Z" id="Path"></path>
                <rect id="Rectangle" x="19.8305085" y="37.3728814" width="1.52542373" height="7.62711864"></rect>
                <rect id="Rectangle" x="22.8813559" y="37.3728814" width="1.52542373" height="7.62711864"></rect>
                <path d="M25.9322034,37.3728814 L25.9322034,45 L27.4576271,45 L27.4576271,37.2325424 C27.2181356,37.3179661 26.9633898,37.3728814 26.6949153,37.3728814 L25.9322034,37.3728814 Z" id="Path"></path>
                <rect id="Rectangle" x="16.779661" y="37.3728814" width="1.52542373" height="7.62711864"></rect>
                <path d="M26.6949153,28.220339 L11.440678,28.220339 C11.0204237,28.220339 10.6779661,28.5627966 10.6779661,28.9830508 L10.6779661,35.0847458 C10.6779661,35.505 11.0204237,35.8474576 11.440678,35.8474576 L26.6949153,35.8474576 C27.1151695,35.8474576 27.4576271,35.505 27.4576271,35.0847458 L27.4576271,28.9830508 C27.4576271,28.5627966 27.1151695,28.220339 26.6949153,28.220339 Z M25.9322034,34.3220339 L12.2033898,34.3220339 L12.2033898,32.7966102 L25.9322034,32.7966102 L25.9322034,34.3220339 Z M25.9322034,31.2711864 L12.2033898,31.2711864 L12.2033898,29.7457627 L25.9322034,29.7457627 L25.9322034,31.2711864 Z" id="Shape"></path>
                <path d="M10.6779661,37.2325424 L10.6779661,45 L12.2033898,45 L12.2033898,37.3728814 L11.440678,37.3728814 C11.1722034,37.3728814 10.9174576,37.3179661 10.6779661,37.2325424 Z" id="Path"></path>
                <rect id="Rectangle" x="4.57627119" y="19.0677966" width="1.52542373" height="25.9322034"></rect>
                <path d="M1.52542373,44.2372881 C1.52542373,44.6575424 1.86788136,45 2.28813559,45 L3.05084746,45 L3.05084746,19.0677966 L1.52542373,19.0677966 L1.52542373,44.2372881 Z" id="Path"></path>
                <path d="M12.2033898,26.6949153 L12.2033898,19.0677966 L10.6779661,19.0677966 L10.6779661,26.8352542 C10.9174576,26.7498305 11.1722034,26.6949153 11.440678,26.6949153 L12.2033898,26.6949153 Z" id="Path"></path>
                <rect id="Rectangle" x="13.7288136" y="37.3728814" width="1.52542373" height="7.62711864"></rect>
                <polygon id="Path" points="7.62711864 45 9.15254237 45 9.15254237 35.0847458 9.15254237 28.9830508 9.15254237 19.0677966 7.62711864 19.0677966"></polygon>
                <path d="M37.3728814,12.9661017 L0.762711864,12.9661017 C0.342457627,12.9661017 0,13.3085593 0,13.7288136 L0,16.779661 C0,17.1999153 0.342457627,17.5423729 0.762711864,17.5423729 L37.3728814,17.5423729 C37.7931356,17.5423729 38.1355932,17.1999153 38.1355932,16.779661 L38.1355932,13.7288136 C38.1355932,13.3085593 37.7931356,12.9661017 37.3728814,12.9661017 Z M3.05084746,16.0169492 L1.52542373,16.0169492 L1.52542373,14.4915254 L3.05084746,14.4915254 L3.05084746,16.0169492 Z M6.10169492,16.0169492 L4.57627119,16.0169492 L4.57627119,14.4915254 L6.10169492,14.4915254 L6.10169492,16.0169492 Z M9.15254237,16.0169492 L7.62711864,16.0169492 L7.62711864,14.4915254 L9.15254237,14.4915254 L9.15254237,16.0169492 Z" id="Shape"></path>
                <rect id="Rectangle" x="22.8813559" y="19.0677966" width="1.52542373" height="7.62711864"></rect>
                <path d="M25.9322034,26.6949153 L26.6949153,26.6949153 C26.9633898,26.6949153 27.2181356,26.7498305 27.4576271,26.8352542 L27.4576271,19.0677966 L25.9322034,19.0677966 L25.9322034,26.6949153 Z" id="Path"></path>
                <polygon id="Path" points="28.9830508 28.9830508 28.9830508 35.0847458 28.9830508 45 30.5084746 45 30.5084746 19.0677966 28.9830508 19.0677966"></polygon>
                <path d="M35.0847458,45 L35.8474576,45 C36.2677119,45 36.6101695,44.6575424 36.6101695,44.2372881 L36.6101695,19.0677966 L35.0847458,19.0677966 L35.0847458,45 Z" id="Path"></path>
                <rect id="Rectangle" x="32.0338983" y="19.0677966" width="1.52542373" height="25.9322034"></rect>
                <rect id="Rectangle" x="13.7288136" y="19.0677966" width="1.52542373" height="7.62711864"></rect>
                <rect id="Rectangle" x="16.779661" y="19.0677966" width="1.52542373" height="7.62711864"></rect>
                <rect id="Rectangle" x="19.8305085" y="19.0677966" width="1.52542373" height="7.62711864"></rect>
            </g>
        </g>
    </g>
</svg>