<svg xmlns="http://www.w3.org/2000/svg" width="27" height="27" viewBox="0 0 27 27">
    <path stroke="#FFF" d="M25.688 1h-2.579c-.172 0-.312.14-.312.313v6.92h-7.695v-6.92c0-.173-.14-.313-.313-.313h-2.578c-.173 0-.313.14-.313.313v6.92H4.203v-6.92c0-.173-.14-.313-.312-.313H1.312C1.14 1 1 1.14 1 1.313v21.875c0 .172.14.312.313.312h.976v1.875h-.977c-.172 0-.312.14-.312.313 0 .172.14.312.313.312H3.89c.172 0 .312-.14.312-.313 0-.172-.14-.312-.312-.312h-.977V23.5h.977c.172 0 .312-.14.312-.313v-1.171h7.695v1.172c0 .172.14.312.313.312h.976v1.875h-.976c-.173 0-.313.14-.313.313 0 .172.14.312.313.312h2.578c.173 0 .313-.14.313-.313 0-.172-.14-.312-.313-.312h-.976V23.5h.976c.173 0 .313-.14.313-.313v-1.171h7.695v1.172c0 .172.14.312.312.312h.977v1.875h-.977c-.172 0-.312.14-.312.313 0 .172.14.312.312.312h2.578c.173 0 .313-.14.313-.313 0-.172-.14-.312-.313-.312h-.976V23.5h.977c.172 0 .312-.14.312-.313V1.313C26 1.14 25.86 1 25.687 1zM15.101 11.32h7.695v7.61h-7.695v-7.61zm7.695-2.462v1.836h-7.695V8.858h7.695zM4.203 11.32h7.695v7.61H4.203v-7.61zm7.695-2.46v1.835H4.203V8.858h7.695zm-8.32 14.016H1.625V1.625h1.953v21.25zm.625-1.484v-1.836h7.695v1.836H4.203zm10.274 1.484h-1.954V1.625h1.954v21.25zm.625-1.484v-1.836h7.695v1.836h-7.695zm10.273 1.484h-1.953V1.625h1.953v21.25z"/>
</svg>
