<?xml version="1.0" encoding="UTF-8"?>
<svg width="35px" height="45px" viewBox="0 0 35 45" version="1.1" xmlns="http://www.w3.org/2000/svg" xmlns:xlink="http://www.w3.org/1999/xlink">
    <title>noun_Cutting Board_1005623</title>
    <g id="Page-1" stroke="none" stroke-width="1" fill="none" fill-rule="evenodd">
        <g id="noun_Cutting-Board_1005623" fill="#000000" fill-rule="nonzero">
            <path d="M32.25,44.8392857 L2.03571429,44.8392857 C1.01785714,44.8392857 0.160714286,43.9821429 0.160714286,42.9642857 L0.160714286,2.03571429 C0.160714286,1.01785714 1.01785714,0.160714286 2.03571429,0.160714286 L32.1964286,0.160714286 C33.2142857,0.160714286 34.0714286,1.01785714 34.0714286,2.03571429 L34.0714286,42.9107143 C34.125,43.9821429 33.2678571,44.8392857 32.25,44.8392857 Z M2.03571429,1.76785714 C1.875,1.76785714 1.76785714,1.875 1.76785714,2.03571429 L1.76785714,42.9107143 C1.76785714,43.0714286 1.875,43.1785714 2.03571429,43.1785714 L32.1964286,43.1785714 C32.3571429,43.1785714 32.4642857,43.0714286 32.4642857,42.9107143 L32.4642857,2.03571429 C32.4642857,1.875 32.3571429,1.76785714 32.1964286,1.76785714 L2.03571429,1.76785714 Z" id="Shape"></path>
            <path d="M21.8571429,11.25 L12.375,11.25 C11.3571429,11.25 10.5,10.3928571 10.5,9.375 L10.5,7.23214286 C10.5,6.21428571 11.3571429,5.35714286 12.375,5.35714286 L21.8571429,5.35714286 C22.875,5.35714286 23.7321429,6.21428571 23.7321429,7.23214286 L23.7321429,9.375 C23.7321429,10.3928571 22.9285714,11.25 21.8571429,11.25 Z M12.375,6.96428571 C12.2142857,6.96428571 12.1071429,7.07142857 12.1071429,7.23214286 L12.1071429,9.375 C12.1071429,9.53571429 12.2142857,9.64285714 12.375,9.64285714 L21.8571429,9.64285714 C22.0178571,9.64285714 22.125,9.53571429 22.125,9.375 L22.125,7.23214286 C22.125,7.07142857 22.0178571,6.96428571 21.8571429,6.96428571 L12.375,6.96428571 Z" id="Shape"></path>
        </g>
    </g>
</svg>