<svg xmlns="http://www.w3.org/2000/svg" width="24" height="30" viewBox="0 0 24 30">
    <g fill="#FFF">
        <path stroke="#FFF" d="M0 24.62c0 .276.2.514.477.57l13.711 2.797c.042.009.083.013.124.013.136 0 .27-.045.378-.13.14-.111.222-.278.222-.453v-2.214H21.4c.332 0 .6-.26.6-.583V.583C22 .261 21.732 0 21.4 0H.6C.57 0 .544.011.515.016.485.02.456.023.427.032.37.049.317.076.267.109.253.119.235.12.222.13.22.133.217.138.214.14.152.193.1.255.064.327.055.342.053.36.047.376.03.422.008.47.003.522.002.535.006.546.006.558.006.567 0 .574 0 .583V24.62zM20.8 1.167v22.87h-5.888V3.38c0-.276-.2-.514-.477-.57L6.382 1.166H20.8zm-19.6.135l12.511 2.552V26.698l-12.51-2.552V1.302z" transform="translate(1 1)"/>
        <path d="M11.5 14c-.276 0-.5.346-.5.772v1.456c0 .426.224.772.5.772s.5-.346.5-.772v-1.456c0-.426-.224-.772-.5-.772z" transform="translate(1 1)"/>
    </g>
</svg>
