<?xml version="1.0" encoding="utf-8"?>
<!-- Generator: Adobe Illustrator 26.0.3, SVG Export Plug-In . SVG Version: 6.00 Build 0)  -->
<svg version="1.1" id="Layer_1" xmlns="http://www.w3.org/2000/svg" xmlns:xlink="http://www.w3.org/1999/xlink" x="0px" y="0px"
	 viewBox="0 0 62.17 50.54" style="enable-background:new 0 0 62.17 50.54;" xml:space="preserve">
<style type="text/css">
	.st0{fill:#FFFFFF;}
	.st1{fill:#B5B5B5;}
</style>
<rect width="62.17" height="50.54"/>
<g>
	<path class="st0" d="M19.25,30.71h13.38c2.35,0,4.24-1.92,4.25-4.29c0-2.37-1.9-4.28-4.25-4.29H19.25c-3.24,0-5.87-2.65-5.87-5.92
		s2.63-5.92,5.87-5.92h13.38V1.71H19.25c-3.97,0-7.56,1.62-10.16,4.25c-2.7,2.73-4.22,6.41-4.21,10.25c0,4.01,1.61,7.63,4.21,10.25
		C11.69,29.09,15.28,30.71,19.25,30.71z"/>
	<path class="st1" d="M32.51,11.71H19.13c-2.35,0-4.25,1.91-4.25,4.26s1.9,4.25,4.25,4.26h13.38c3.24,0,5.87,2.64,5.87,5.88
		c0,3.25-2.63,5.88-5.87,5.88H19.13v16.72h8.5V40.5h4.88c3.81,0,7.47-1.51,10.16-4.22c2.6-2.61,4.21-6.2,4.21-10.18
		c0.01-3.82-1.51-7.48-4.21-10.18C39.98,13.22,36.32,11.7,32.51,11.71z"/>
</g>
<rect x="54.15" y="1.71" class="st0" width="1.52" height="47"/>
</svg>
