<svg xmlns="http://www.w3.org/2000/svg" width="26" height="27" viewBox="0 0 26 27">
    <path fill="#FFF" stroke="#FFF" d="M3.4 1v2.233H1v1.201h2.4v18.132H1v1.2h2.4V26H25V1H3.4zm1.2 3.434h15.312c.816 0 1.488.6 1.488 1.321 0 .72-.672 1.32-1.488 1.32H8.488C7 7.1 5.8 8.23 5.8 9.623c0 1.392 1.2 2.521 2.688 2.521h11.424c.816 0 1.488.6 1.488 1.321 0 .744-.672 1.32-1.488 1.32H8.488C7 14.785 5.8 15.915 5.8 17.307c0 1.393 1.2 2.522 2.688 2.522h11.424c.816 0 1.488.6 1.488 1.32 0 .745-.672 1.322-1.488 1.322H4.6V4.434zm19.2 20.341H4.6v-1.032h15.312c1.488 0 2.688-1.13 2.688-2.522 0-1.393-1.2-2.522-2.688-2.522H8.488C7.672 18.7 7 18.1 7 17.38c0-.721.672-1.321 1.488-1.321h11.424c1.488 0 2.688-1.13 2.688-2.522 0-1.393-1.2-2.522-2.688-2.522H8.488c-.816 0-1.488-.6-1.488-1.32 0-.72.672-1.321 1.488-1.321h11.424c1.488 0 2.688-1.129 2.688-2.522 0-1.393-1.2-2.522-2.688-2.522H4.6V2.201h19.2v22.574z"/>
</svg>
