<svg xmlns="http://www.w3.org/2000/svg" width="27" height="28" viewBox="0 0 27 28">
    <g fill="#FFF">
        <path d="M13.5 1.867C7.083 1.867 1.862 7.1 1.862 13.533c0 6.433 5.22 11.667 11.638 11.667 6.417 0 11.638-5.234 11.638-11.667S19.918 1.867 13.5 1.867zm0 22.4c-5.904 0-10.707-4.815-10.707-10.734C2.793 7.615 7.596 2.8 13.5 2.8c5.904 0 10.707 4.815 10.707 10.733 0 5.919-4.803 10.734-10.707 10.734z"/>
        <path d="M13.5 3.733c-5.39 0-9.776 4.396-9.776 9.8 0 5.404 4.386 9.8 9.776 9.8s9.776-4.396 9.776-9.8c0-5.404-4.386-9.8-9.776-9.8zm0 18.667c-4.877 0-8.845-3.977-8.845-8.867 0-4.889 3.968-8.866 8.845-8.866 4.877 0 8.845 3.977 8.845 8.866 0 4.89-3.968 8.867-8.845 8.867z"/>
        <path d="M13.5 5.6c-4.364 0-7.914 3.559-7.914 7.933 0 4.375 3.55 7.934 7.914 7.934s7.914-3.56 7.914-7.934c0-4.374-3.55-7.933-7.914-7.933zm0 14.933c-3.85 0-6.983-3.14-6.983-7s3.133-7 6.983-7c3.85 0 6.983 3.14 6.983 7s-3.133 7-6.983 7zM25.138 24.267c0 .514.417.933.931.933.513 0 .931-.419.931-.933v-5.628c-.466 1.234-1.095 2.388-1.862 3.435v2.193z"/>
        <path d="M13.5 0C6.056 0 0 6.07 0 13.533c0 7.463 6.056 13.534 13.5 13.534S27 20.996 27 13.533C27 6.071 20.944 0 13.5 0zm0 26.133c-6.93 0-12.569-5.652-12.569-12.6C.931 6.586 6.569.933 13.5.933c6.93 0 12.569 5.653 12.569 12.6 0 6.948-5.638 12.6-12.569 12.6zM0 24.267c0 .514.418.933.931.933.513 0 .931-.419.931-.933v-2.193C1.095 21.027.466 19.874 0 18.64v5.628zM25.603 26.067V28h.931v-1.933c-.15.04-.303.066-.465.066-.162 0-.316-.027-.466-.066zM.466 26.067V28h.93v-1.933c-.15.04-.303.066-.465.066-.162 0-.316-.027-.465-.066z"/>
    </g>
</svg>
