<svg xmlns="http://www.w3.org/2000/svg" width="28" height="28" viewBox="0 0 28 28">
    <g fill="#FFF">
        <path d="M26.102 0H8.068c-.525 0-.95.425-.95.95 0 .524.425.948.95.948h17.56c.261 0 .474.213.474.475v1.424H9.966c-.524 0-.95.424-.95.949 0 .524.426.949.95.949h16.136v2.373c0 .262-.213.474-.475.474h-.949v1.899h1.424C27.15 10.44 28 9.59 28 8.542V1.898C28 .85 27.15 0 26.102 0zM12.339 23.254H13.339V28H12.339zM14.237 23.254H15.237V28H14.237zM16.136 23.254V28h.949v-4.833c-.15.053-.308.087-.475.087h-.474zM10.441 23.254H11.441V28H10.441zM16.61 17.56H7.12c-.262 0-.475.212-.475.474v3.797c0 .261.213.474.475.474h9.491c.262 0 .475-.213.475-.474v-3.797c0-.262-.213-.475-.475-.475zm-.474 3.796H7.593v-.95h8.543v.95zm0-1.898H7.593v-.95h8.543v.95zM6.644 23.167V28h.95v-4.746h-.475c-.167 0-.326-.034-.475-.087zM2.847 11.864H3.847V28H2.847zM.95 27.525c0 .262.212.475.474.475h.474V11.864H.95v15.661zM7.593 16.61v-4.746h-.949v4.833c.15-.053.308-.087.475-.087h.474zM8.542 23.254H9.542V28H8.542zM4.746 28L5.695 28 5.695 21.831 5.695 18.034 5.695 11.864 4.746 11.864z"/>
        <path d="M23.254 8.068H.474c-.26 0-.474.213-.474.474v1.899c0 .261.213.474.475.474h22.78c.26 0 .474-.213.474-.474V8.542c0-.261-.213-.474-.475-.474zM1.898 9.966H.95v-.95h.95v.95zm1.899 0h-.95v-.95h.95v.95zm1.898 0h-.95v-.95h.95v.95zM14.237 11.864H15.237V16.61H14.237zM16.136 16.61h.474c.167 0 .326.034.475.087v-4.833h-.95v4.746zM18.034 18.034L18.034 21.831 18.034 28 18.983 28 18.983 11.864 18.034 11.864zM21.83 28h.475c.262 0 .475-.213.475-.475v-15.66h-.95V28zM19.932 11.864H20.932V28H19.932zM8.542 11.864H9.542V16.61H8.542zM10.441 11.864H11.441V16.61H10.441zM12.339 11.864H13.339V16.61H12.339z"/>
    </g>
</svg>
