<?xml version="1.0" encoding="UTF-8"?>
<svg width="45px" height="45px" viewBox="0 0 45 45" version="1.1" xmlns="http://www.w3.org/2000/svg" xmlns:xlink="http://www.w3.org/1999/xlink">
    <title>noun_shelving_1982115</title>
    <g id="Page-1" stroke="none" stroke-width="1" fill="none" fill-rule="evenodd">
        <g id="noun_shelving_1982115" fill="#000000" fill-rule="nonzero">
            <path d="M44.4375,0 L39.796875,0 C39.4862366,0 39.234375,0.251861569 39.234375,0.5625 L39.234375,13.0196228 L25.3828125,13.0196228 L25.3828125,0.5625 C25.3828125,0.251861569 25.1309509,0 24.8203125,0 L20.1796875,0 C19.8690491,0 19.6171875,0.251861569 19.6171875,0.5625 L19.6171875,13.0196228 L5.765625,13.0196228 L5.765625,0.5625 C5.765625,0.251861569 5.51376343,0 5.203125,0 L0.5625,0 C0.251861569,0 0,0.251861569 0,0.5625 L0,39.9375 C0,40.2481384 0.251861569,40.5 0.5625,40.5 L2.3203125,40.5 L2.3203125,43.875 L0.5625,43.875 C0.251861569,43.875 0,44.1268616 0,44.4375 C0,44.7481384 0.251861569,45 0.5625,45 L5.203125,45 C5.51376343,45 5.765625,44.7481384 5.765625,44.4375 C5.765625,44.1268616 5.51376343,43.875 5.203125,43.875 L3.4453125,43.875 L3.4453125,40.5 L5.203125,40.5 C5.51376343,40.5 5.765625,40.2481384 5.765625,39.9375 L5.765625,37.828125 L19.6171875,37.828125 L19.6171875,39.9375 C19.6171875,40.2481384 19.8690491,40.5 20.1796875,40.5 L21.9375,40.5 L21.9375,43.875 L20.1796875,43.875 C19.8690491,43.875 19.6171875,44.1268616 19.6171875,44.4375 C19.6171875,44.7481384 19.8690491,45 20.1796875,45 L24.8203125,45 C25.1309509,45 25.3828125,44.7481384 25.3828125,44.4375 C25.3828125,44.1268616 25.1309509,43.875 24.8203125,43.875 L23.0625,43.875 L23.0625,40.5 L24.8203125,40.5 C25.1309509,40.5 25.3828125,40.2481384 25.3828125,39.9375 L25.3828125,37.828125 L39.234375,37.828125 L39.234375,39.9375 C39.234375,40.2481384 39.4862366,40.5 39.796875,40.5 L41.5546875,40.5 L41.5546875,43.875 L39.796875,43.875 C39.4862366,43.875 39.234375,44.1268616 39.234375,44.4375 C39.234375,44.7481384 39.4862366,45 39.796875,45 L44.4375,45 C44.7481384,45 45,44.7481384 45,44.4375 C45,44.1268616 44.7481384,43.875 44.4375,43.875 L42.6796875,43.875 L42.6796875,40.5 L44.4375,40.5 C44.7481384,40.5 45,40.2481384 45,39.9375 L45,0.5625 C45,0.251861569 44.7481384,0 44.4375,0 Z M25.3828125,18.5743103 L39.234375,18.5743103 L39.234375,32.2734375 L25.3828125,32.2734375 L25.3828125,18.5743103 Z M39.234375,14.1446228 L39.234375,17.4493103 L25.3828125,17.4493103 L25.3828125,14.1446228 L39.234375,14.1446228 Z M5.765625,18.5743103 L19.6171875,18.5743103 L19.6171875,32.2734375 L5.765625,32.2734375 L5.765625,18.5743103 Z M19.6171875,14.1446228 L19.6171875,17.4493103 L5.765625,17.4493103 L5.765625,14.1446228 L19.6171875,14.1446228 Z M4.640625,39.375 L1.125,39.375 L1.125,1.125 L4.640625,1.125 L4.640625,39.375 Z M5.765625,36.703125 L5.765625,33.3984375 L19.6171875,33.3984375 L19.6171875,36.703125 L5.765625,36.703125 Z M24.2578125,39.375 L20.7421875,39.375 L20.7421875,1.125 L24.2578125,1.125 L24.2578125,39.375 Z M25.3828125,36.703125 L25.3828125,33.3984375 L39.234375,33.3984375 L39.234375,36.703125 L25.3828125,36.703125 Z M43.875,39.375 L40.359375,39.375 L40.359375,1.125 L43.875,1.125 L43.875,39.375 Z" id="Shape"></path>
        </g>
    </g>
</svg>