<svg xmlns="http://www.w3.org/2000/svg" width="18" height="23" viewBox="0 0 18 23">
    <g fill="#FFF" stroke="#FFF">
        <path d="M15.14 21H.885C.405 21 0 20.597 0 20.119V.88C0 .403.404 0 .885 0h14.23c.48 0 .884.403.884.881v19.213c.025.503-.38.906-.86.906zM.885.755c-.076 0-.127.05-.127.126v19.213c0 .075.05.125.127.125h14.23c.075 0 .126-.05.126-.125V.88c0-.075-.05-.126-.127-.126H.884z" transform="translate(1 1)"/>
        <path d="M10.15 5h-4.3C5.39 5 5 4.71 5 4.364v-.728C5 3.291 5.389 3 5.85 3h4.3c.461 0 .85.29.85.636v.728c0 .345-.364.636-.85.636zm-4.3-1.455c-.073 0-.121.037-.121.091v.728c0 .054.048.09.121.09h4.3c.073 0 .121-.036.121-.09v-.728c0-.054-.048-.09-.121-.09h-4.3z" transform="translate(1 1)"/>
    </g>
</svg>
